<svg xmlns="http://www.w3.org/2000/svg" viewBox="460 70 660 660">
  <style>
    svg { color: #fff }
    @media (prefers-color-scheme: light) {
      svg { color: #000 }
    }
  </style>
  <g transform="translate(0,74.8622)">
    <path fill="currentColor" transform="matrix(1.1806583,0,0,1.1521551,-258.92369,143.1634)"
      d="M 948.89504,98.82671 L 884.95847,54.186037 L 820.88154,98.625008 L 843.57986,24.022988 L 781.51503,-23.185393 L 859.47993,-24.651304 L 885.19868,-98.266658 L 910.68532,-24.570621 L 988.64522,-22.859031 L 926.43193,24.153536 L 948.89504,98.82671 z"/>
    <g transform="matrix(4.366964,0,0,4.366964,567.91816,230.82527)">
      <path fill="currentColor" d="M 91.4,20.1 H 36.7 l -4.8,-6 C 30.5,12.4 28.3,11.5 26.1,11.5 H 8.6 c -3.6,0 -6.4,2.9 -6.4,6.4 v 64.2 c 0,3.6 2.9,6.4 6.4,6.4 h 82.7 c 3.6,0 6.4,-2.9 6.4,-6.4 V 26.5 c 0.1,-3.6 -2.8,-6.4 -6.3,-6.4 z M 8.6,15.8 H 26 c 1,0 2,0.4 2.6,1.1 l 6.1,7.4 h 56.6 c 1.1,0 2.1,1 2.1,2.1 v 6 H 6.4 V 17.9 C 6.5,16.8 7.5,15.8 8.6,15.8 Z M 91.4,84.2 H 8.6 c -1.1,0 -2.1,-1 -2.1,-2.1 V 36.9 h 87 v 45.3 c 0,1 -1,2 -2.1,2 z"/>
    </g>
  </g>
</svg>
